<?xml version="1.0" encoding="UTF-8" standalone="no"?>
<!DOCTYPE svg PUBLIC "-//W3C//DTD SVG 1.1//EN"
 "http://www.w3.org/Graphics/SVG/1.1/DTD/svg11.dtd">
<!-- Generated by graphviz version 2.47.0 (20210316.0004)
 -->
<!-- Title: dependencies Pages: 1 -->
<svg width="686pt" height="211pt"
 viewBox="0.00 0.00 686.00 211.00" xmlns="http://www.w3.org/2000/svg" xmlns:xlink="http://www.w3.org/1999/xlink">
<g id="graph0" class="graph" transform="scale(1 1) rotate(0) translate(4 207)">
<title>dependencies</title>
<polygon fill="white" stroke="transparent" points="-4,4 -4,-207 682,-207 682,4 -4,4"/>
<text text-anchor="start" x="318.01" y="-42.4" font-family="Times-12" font-weight="bold" font-size="14.00">Legend</text>
<polygon fill="#ffffb3" stroke="transparent" points="105,-10 105,-30 125,-30 125,-10 105,-10"/>
<text text-anchor="start" x="128.63" y="-15.4" font-family="Times-12" font-size="14.00"> &#160;Declarations</text>
<polygon fill="#8dd3c7" stroke="transparent" points="218,-10 218,-30 238,-30 238,-10 218,-10"/>
<text text-anchor="start" x="241.73" y="-15.4" font-family="Times-12" font-size="14.00"> &#160;Module</text>
<polygon fill="#80b1d3" stroke="transparent" points="304,-10 304,-30 324,-30 324,-10 304,-10"/>
<text text-anchor="start" x="327.78" y="-15.4" font-family="Times-12" font-size="14.00"> &#160;Bootstrap</text>
<polygon fill="#fdb462" stroke="transparent" points="401,-10 401,-30 421,-30 421,-10 401,-10"/>
<text text-anchor="start" x="424.67" y="-15.4" font-family="Times-12" font-size="14.00"> &#160;Providers</text>
<polygon fill="#fb8072" stroke="transparent" points="497,-10 497,-30 517,-30 517,-10 497,-10"/>
<text text-anchor="start" x="520.73" y="-15.4" font-family="Times-12" font-size="14.00"> &#160;Exports</text>
<g id="clust1" class="cluster">
<title>cluster_FreeSlotModule</title>
<polygon fill="none" stroke="black" stroke-dasharray="1,5" points="8,-70 8,-195 670,-195 670,-70 8,-70"/>
</g>
<g id="clust3" class="cluster">
<title>cluster_FreeSlotModule_imports</title>
<polygon fill="none" stroke="black" points="544,-78 544,-130 662,-130 662,-78 544,-78"/>
</g>
<g id="clust6" class="cluster">
<title>cluster_FreeSlotModule_providers</title>
<polygon fill="none" stroke="black" points="16,-78 16,-130 536,-130 536,-78 16,-78"/>
</g>
<!-- SessionModule -->
<g id="node1" class="node">
<title>SessionModule</title>
<polygon fill="#8dd3c7" stroke="black" points="654.33,-122 651.33,-126 630.33,-126 627.33,-122 551.67,-122 551.67,-86 654.33,-86 654.33,-122"/>
<text text-anchor="middle" x="603" y="-99.8" font-family="Times,serif" font-size="14.00">SessionModule</text>
</g>
<!-- FreeSlotModule -->
<g id="node2" class="node">
<title>FreeSlotModule</title>
<polygon fill="#8dd3c7" stroke="black" points="405.49,-187 402.49,-191 381.49,-191 378.49,-187 298.51,-187 298.51,-151 405.49,-151 405.49,-187"/>
<text text-anchor="middle" x="352" y="-164.8" font-family="Times,serif" font-size="14.00">FreeSlotModule</text>
</g>
<!-- SessionModule&#45;&gt;FreeSlotModule -->
<g id="edge1" class="edge">
<title>SessionModule&#45;&gt;FreeSlotModule</title>
<path fill="none" stroke="black" d="M603,-122.11C603,-141.34 603,-169 603,-169 603,-169 415.54,-169 415.54,-169"/>
<polygon fill="black" stroke="black" points="415.54,-165.5 405.54,-169 415.54,-172.5 415.54,-165.5"/>
</g>
<!-- AvailabilityService -->
<g id="node3" class="node">
<title>AvailabilityService</title>
<ellipse fill="#fdb462" stroke="black" cx="442" cy="-104" rx="86.25" ry="18"/>
<text text-anchor="middle" x="442" y="-99.8" font-family="Times,serif" font-size="14.00">AvailabilityService</text>
</g>
<!-- AvailabilityService&#45;&gt;FreeSlotModule -->
<g id="edge2" class="edge">
<title>AvailabilityService&#45;&gt;FreeSlotModule</title>
<path fill="none" stroke="black" d="M380.68,-116.84C380.68,-116.84 380.68,-140.52 380.68,-140.52"/>
<polygon fill="black" stroke="black" points="377.18,-140.52 380.68,-150.52 384.18,-140.52 377.18,-140.52"/>
</g>
<!-- CalendarService -->
<g id="node4" class="node">
<title>CalendarService</title>
<ellipse fill="#fdb462" stroke="black" cx="263" cy="-104" rx="74.7" ry="18"/>
<text text-anchor="middle" x="263" y="-99.8" font-family="Times,serif" font-size="14.00">CalendarService</text>
</g>
<!-- CalendarService&#45;&gt;FreeSlotModule -->
<g id="edge3" class="edge">
<title>CalendarService&#45;&gt;FreeSlotModule</title>
<path fill="none" stroke="black" d="M318.18,-116.23C318.18,-116.23 318.18,-140.68 318.18,-140.68"/>
<polygon fill="black" stroke="black" points="314.68,-140.68 318.18,-150.68 321.68,-140.68 314.68,-140.68"/>
</g>
<!-- FreeSlotService -->
<g id="node5" class="node">
<title>FreeSlotService</title>
<ellipse fill="#fdb462" stroke="black" cx="97" cy="-104" rx="72.93" ry="18"/>
<text text-anchor="middle" x="97" y="-99.8" font-family="Times,serif" font-size="14.00">FreeSlotService</text>
</g>
<!-- FreeSlotService&#45;&gt;FreeSlotModule -->
<g id="edge4" class="edge">
<title>FreeSlotService&#45;&gt;FreeSlotModule</title>
<path fill="none" stroke="black" d="M97,-122.11C97,-141.34 97,-169 97,-169 97,-169 288.23,-169 288.23,-169"/>
<polygon fill="black" stroke="black" points="288.23,-172.5 298.23,-169 288.23,-165.5 288.23,-172.5"/>
</g>
</g>
</svg>
