<?xml version="1.0" encoding="UTF-8" standalone="no"?>
<!DOCTYPE svg PUBLIC "-//W3C//DTD SVG 1.1//EN"
 "http://www.w3.org/Graphics/SVG/1.1/DTD/svg11.dtd">
<!-- Generated by graphviz version 2.47.0 (20210316.0004)
 -->
<!-- Title: dependencies Pages: 1 -->
<svg width="504pt" height="211pt"
 viewBox="0.00 0.00 504.00 211.00" xmlns="http://www.w3.org/2000/svg" xmlns:xlink="http://www.w3.org/1999/xlink">
<g id="graph0" class="graph" transform="scale(1 1) rotate(0) translate(4 207)">
<title>dependencies</title>
<polygon fill="white" stroke="transparent" points="-4,4 -4,-207 500,-207 500,4 -4,4"/>
<text text-anchor="start" x="227.01" y="-42.4" font-family="Times-12" font-weight="bold" font-size="14.00">Legend</text>
<polygon fill="#ffffb3" stroke="transparent" points="14,-10 14,-30 34,-30 34,-10 14,-10"/>
<text text-anchor="start" x="37.63" y="-15.4" font-family="Times-12" font-size="14.00"> &#160;Declarations</text>
<polygon fill="#8dd3c7" stroke="transparent" points="127,-10 127,-30 147,-30 147,-10 127,-10"/>
<text text-anchor="start" x="150.73" y="-15.4" font-family="Times-12" font-size="14.00"> &#160;Module</text>
<polygon fill="#80b1d3" stroke="transparent" points="213,-10 213,-30 233,-30 233,-10 213,-10"/>
<text text-anchor="start" x="236.78" y="-15.4" font-family="Times-12" font-size="14.00"> &#160;Bootstrap</text>
<polygon fill="#fdb462" stroke="transparent" points="310,-10 310,-30 330,-30 330,-10 310,-10"/>
<text text-anchor="start" x="333.67" y="-15.4" font-family="Times-12" font-size="14.00"> &#160;Providers</text>
<polygon fill="#fb8072" stroke="transparent" points="406,-10 406,-30 426,-30 426,-10 406,-10"/>
<text text-anchor="start" x="429.73" y="-15.4" font-family="Times-12" font-size="14.00"> &#160;Exports</text>
<g id="clust1" class="cluster">
<title>cluster_MeetingModule</title>
<polygon fill="none" stroke="black" stroke-dasharray="1,5" points="13,-70 13,-195 483,-195 483,-70 13,-70"/>
</g>
<g id="clust3" class="cluster">
<title>cluster_MeetingModule_imports</title>
<polygon fill="none" stroke="black" points="353,-78 353,-130 475,-130 475,-78 353,-78"/>
</g>
<g id="clust6" class="cluster">
<title>cluster_MeetingModule_providers</title>
<polygon fill="none" stroke="black" points="21,-78 21,-130 345,-130 345,-78 21,-78"/>
</g>
<!-- FreeSlotModule -->
<g id="node1" class="node">
<title>FreeSlotModule</title>
<polygon fill="#8dd3c7" stroke="black" points="467.49,-122 464.49,-126 443.49,-126 440.49,-122 360.51,-122 360.51,-86 467.49,-86 467.49,-122"/>
<text text-anchor="middle" x="414" y="-99.8" font-family="Times,serif" font-size="14.00">FreeSlotModule</text>
</g>
<!-- MeetingModule -->
<g id="node2" class="node">
<title>MeetingModule</title>
<polygon fill="#8dd3c7" stroke="black" points="317.2,-187 314.2,-191 293.2,-191 290.2,-187 210.8,-187 210.8,-151 317.2,-151 317.2,-187"/>
<text text-anchor="middle" x="264" y="-164.8" font-family="Times,serif" font-size="14.00">MeetingModule</text>
</g>
<!-- FreeSlotModule&#45;&gt;MeetingModule -->
<g id="edge1" class="edge">
<title>FreeSlotModule&#45;&gt;MeetingModule</title>
<path fill="none" stroke="black" d="M414,-122.11C414,-141.34 414,-169 414,-169 414,-169 327.31,-169 327.31,-169"/>
<polygon fill="black" stroke="black" points="327.31,-165.5 317.31,-169 327.31,-172.5 327.31,-165.5"/>
</g>
<!-- FreeSlotService -->
<g id="node3" class="node">
<title>FreeSlotService</title>
<ellipse fill="#fdb462" stroke="black" cx="264" cy="-104" rx="72.93" ry="18"/>
<text text-anchor="middle" x="264" y="-99.8" font-family="Times,serif" font-size="14.00">FreeSlotService</text>
</g>
<!-- FreeSlotService&#45;&gt;MeetingModule -->
<g id="edge2" class="edge">
<title>FreeSlotService&#45;&gt;MeetingModule</title>
<path fill="none" stroke="black" d="M264,-122.11C264,-122.11 264,-140.99 264,-140.99"/>
<polygon fill="black" stroke="black" points="260.5,-140.99 264,-150.99 267.5,-140.99 260.5,-140.99"/>
</g>
<!-- MeetingService -->
<g id="node4" class="node">
<title>MeetingService</title>
<ellipse fill="#fdb462" stroke="black" cx="101" cy="-104" rx="72.35" ry="18"/>
<text text-anchor="middle" x="101" y="-99.8" font-family="Times,serif" font-size="14.00">MeetingService</text>
</g>
<!-- MeetingService&#45;&gt;MeetingModule -->
<g id="edge3" class="edge">
<title>MeetingService&#45;&gt;MeetingModule</title>
<path fill="none" stroke="black" d="M101,-122.11C101,-141.34 101,-169 101,-169 101,-169 200.63,-169 200.63,-169"/>
<polygon fill="black" stroke="black" points="200.63,-172.5 210.63,-169 200.63,-165.5 200.63,-172.5"/>
</g>
</g>
</svg>
