<?xml version="1.0" encoding="UTF-8" standalone="no"?>
<!DOCTYPE svg PUBLIC "-//W3C//DTD SVG 1.1//EN"
 "http://www.w3.org/Graphics/SVG/1.1/DTD/svg11.dtd">
<!-- Generated by graphviz version 2.47.0 (20210316.0004)
 -->
<!-- Title: dependencies Pages: 1 -->
<svg width="1329pt" height="211pt"
 viewBox="0.00 0.00 1329.00 211.00" xmlns="http://www.w3.org/2000/svg" xmlns:xlink="http://www.w3.org/1999/xlink">
<g id="graph0" class="graph" transform="scale(1 1) rotate(0) translate(4 207)">
<title>dependencies</title>
<polygon fill="white" stroke="transparent" points="-4,4 -4,-207 1325,-207 1325,4 -4,4"/>
<text text-anchor="start" x="639.51" y="-42.4" font-family="Times-12" font-weight="bold" font-size="14.00">Legend</text>
<polygon fill="#ffffb3" stroke="transparent" points="426.5,-10 426.5,-30 446.5,-30 446.5,-10 426.5,-10"/>
<text text-anchor="start" x="450.13" y="-15.4" font-family="Times-12" font-size="14.00"> &#160;Declarations</text>
<polygon fill="#8dd3c7" stroke="transparent" points="539.5,-10 539.5,-30 559.5,-30 559.5,-10 539.5,-10"/>
<text text-anchor="start" x="563.23" y="-15.4" font-family="Times-12" font-size="14.00"> &#160;Module</text>
<polygon fill="#80b1d3" stroke="transparent" points="625.5,-10 625.5,-30 645.5,-30 645.5,-10 625.5,-10"/>
<text text-anchor="start" x="649.28" y="-15.4" font-family="Times-12" font-size="14.00"> &#160;Bootstrap</text>
<polygon fill="#fdb462" stroke="transparent" points="722.5,-10 722.5,-30 742.5,-30 742.5,-10 722.5,-10"/>
<text text-anchor="start" x="746.17" y="-15.4" font-family="Times-12" font-size="14.00"> &#160;Providers</text>
<polygon fill="#fb8072" stroke="transparent" points="818.5,-10 818.5,-30 838.5,-30 838.5,-10 818.5,-10"/>
<text text-anchor="start" x="842.23" y="-15.4" font-family="Times-12" font-size="14.00"> &#160;Exports</text>
<g id="clust1" class="cluster">
<title>cluster_AppModule</title>
<polygon fill="none" stroke="black" stroke-dasharray="1,5" points="8,-70 8,-195 1313,-195 1313,-70 8,-70"/>
</g>
<g id="clust3" class="cluster">
<title>cluster_AppModule_imports</title>
<polygon fill="none" stroke="black" points="154,-78 154,-130 1305,-130 1305,-78 154,-78"/>
</g>
<g id="clust6" class="cluster">
<title>cluster_AppModule_providers</title>
<polygon fill="none" stroke="black" points="16,-78 16,-130 146,-130 146,-78 16,-78"/>
</g>
<!-- AuthModule -->
<g id="node1" class="node">
<title>AuthModule</title>
<polygon fill="#8dd3c7" stroke="black" points="1296.55,-122 1293.55,-126 1272.55,-126 1269.55,-122 1209.45,-122 1209.45,-86 1296.55,-86 1296.55,-122"/>
<text text-anchor="middle" x="1253" y="-99.8" font-family="Times,serif" font-size="14.00">AuthModule</text>
</g>
<!-- AppModule -->
<g id="node10" class="node">
<title>AppModule</title>
<polygon fill="#8dd3c7" stroke="black" points="710.66,-187 707.66,-191 686.66,-191 683.66,-187 627.34,-187 627.34,-151 710.66,-151 710.66,-187"/>
<text text-anchor="middle" x="669" y="-164.8" font-family="Times,serif" font-size="14.00">AppModule</text>
</g>
<!-- AuthModule&#45;&gt;AppModule -->
<g id="edge1" class="edge">
<title>AuthModule&#45;&gt;AppModule</title>
<path fill="none" stroke="black" d="M1253,-122.01C1253,-144.49 1253,-180 1253,-180 1253,-180 721,-180 721,-180"/>
<polygon fill="black" stroke="black" points="721,-176.5 711,-180 721,-183.5 721,-176.5"/>
</g>
<!-- AvailabilityModule -->
<g id="node2" class="node">
<title>AvailabilityModule</title>
<polygon fill="#8dd3c7" stroke="black" points="1191.43,-122 1188.43,-126 1167.43,-126 1164.43,-122 1064.57,-122 1064.57,-86 1191.43,-86 1191.43,-122"/>
<text text-anchor="middle" x="1128" y="-99.8" font-family="Times,serif" font-size="14.00">AvailabilityModule</text>
</g>
<!-- AvailabilityModule&#45;&gt;AppModule -->
<g id="edge2" class="edge">
<title>AvailabilityModule&#45;&gt;AppModule</title>
<path fill="none" stroke="black" d="M1128,-122.13C1128,-142.57 1128,-173 1128,-173 1128,-173 720.95,-173 720.95,-173"/>
<polygon fill="black" stroke="black" points="720.95,-169.5 710.95,-173 720.95,-176.5 720.95,-169.5"/>
</g>
<!-- CalendarModule -->
<g id="node3" class="node">
<title>CalendarModule</title>
<polygon fill="#8dd3c7" stroke="black" points="1047.08,-122 1044.08,-126 1023.08,-126 1020.08,-122 936.92,-122 936.92,-86 1047.08,-86 1047.08,-122"/>
<text text-anchor="middle" x="992" y="-99.8" font-family="Times,serif" font-size="14.00">CalendarModule</text>
</g>
<!-- CalendarModule&#45;&gt;AppModule -->
<g id="edge3" class="edge">
<title>CalendarModule&#45;&gt;AppModule</title>
<path fill="none" stroke="black" d="M992,-122.27C992,-140.56 992,-166 992,-166 992,-166 720.9,-166 720.9,-166"/>
<polygon fill="black" stroke="black" points="720.9,-162.5 710.9,-166 720.9,-169.5 720.9,-162.5"/>
</g>
<!-- DateTimeModule -->
<g id="node4" class="node">
<title>DateTimeModule</title>
<polygon fill="#8dd3c7" stroke="black" points="918.53,-122 915.53,-126 894.53,-126 891.53,-122 803.47,-122 803.47,-86 918.53,-86 918.53,-122"/>
<text text-anchor="middle" x="861" y="-99.8" font-family="Times,serif" font-size="14.00">DateTimeModule</text>
</g>
<!-- DateTimeModule&#45;&gt;AppModule -->
<g id="edge4" class="edge">
<title>DateTimeModule&#45;&gt;AppModule</title>
<path fill="none" stroke="black" d="M861,-122.01C861,-138.05 861,-159 861,-159 861,-159 720.66,-159 720.66,-159"/>
<polygon fill="black" stroke="black" points="720.66,-155.5 710.66,-159 720.66,-162.5 720.66,-155.5"/>
</g>
<!-- FreeSlotModule -->
<g id="node5" class="node">
<title>FreeSlotModule</title>
<polygon fill="#8dd3c7" stroke="black" points="785.49,-122 782.49,-126 761.49,-126 758.49,-122 678.51,-122 678.51,-86 785.49,-86 785.49,-122"/>
<text text-anchor="middle" x="732" y="-99.8" font-family="Times,serif" font-size="14.00">FreeSlotModule</text>
</g>
<!-- FreeSlotModule&#45;&gt;AppModule -->
<g id="edge5" class="edge">
<title>FreeSlotModule&#45;&gt;AppModule</title>
<path fill="none" stroke="black" d="M694.67,-122.11C694.67,-122.11 694.67,-140.99 694.67,-140.99"/>
<polygon fill="black" stroke="black" points="691.17,-140.99 694.67,-150.99 698.17,-140.99 691.17,-140.99"/>
</g>
<!-- MeetingModule -->
<g id="node6" class="node">
<title>MeetingModule</title>
<polygon fill="#8dd3c7" stroke="black" points="660.2,-122 657.2,-126 636.2,-126 633.2,-122 553.8,-122 553.8,-86 660.2,-86 660.2,-122"/>
<text text-anchor="middle" x="607" y="-99.8" font-family="Times,serif" font-size="14.00">MeetingModule</text>
</g>
<!-- MeetingModule&#45;&gt;AppModule -->
<g id="edge6" class="edge">
<title>MeetingModule&#45;&gt;AppModule</title>
<path fill="none" stroke="black" d="M643.64,-122.11C643.64,-122.11 643.64,-140.99 643.64,-140.99"/>
<polygon fill="black" stroke="black" points="640.14,-140.99 643.64,-150.99 647.14,-140.99 640.14,-140.99"/>
</g>
<!-- NotificationModule -->
<g id="node7" class="node">
<title>NotificationModule</title>
<polygon fill="#8dd3c7" stroke="black" points="535.7,-122 532.7,-126 511.7,-126 508.7,-122 408.3,-122 408.3,-86 535.7,-86 535.7,-122"/>
<text text-anchor="middle" x="472" y="-99.8" font-family="Times,serif" font-size="14.00">NotificationModule</text>
</g>
<!-- NotificationModule&#45;&gt;AppModule -->
<g id="edge7" class="edge">
<title>NotificationModule&#45;&gt;AppModule</title>
<path fill="none" stroke="black" d="M472,-122.01C472,-138.05 472,-159 472,-159 472,-159 617.22,-159 617.22,-159"/>
<polygon fill="black" stroke="black" points="617.22,-162.5 627.22,-159 617.22,-155.5 617.22,-162.5"/>
</g>
<!-- PaymentModule -->
<g id="node8" class="node">
<title>PaymentModule</title>
<polygon fill="#8dd3c7" stroke="black" points="390.04,-122 387.04,-126 366.04,-126 363.04,-122 281.96,-122 281.96,-86 390.04,-86 390.04,-122"/>
<text text-anchor="middle" x="336" y="-99.8" font-family="Times,serif" font-size="14.00">PaymentModule</text>
</g>
<!-- PaymentModule&#45;&gt;AppModule -->
<g id="edge8" class="edge">
<title>PaymentModule&#45;&gt;AppModule</title>
<path fill="none" stroke="black" d="M336,-122.27C336,-140.56 336,-166 336,-166 336,-166 617.16,-166 617.16,-166"/>
<polygon fill="black" stroke="black" points="617.16,-169.5 627.16,-166 617.16,-162.5 617.16,-169.5"/>
</g>
<!-- SessionModule -->
<g id="node9" class="node">
<title>SessionModule</title>
<polygon fill="#8dd3c7" stroke="black" points="264.33,-122 261.33,-126 240.33,-126 237.33,-122 161.67,-122 161.67,-86 264.33,-86 264.33,-122"/>
<text text-anchor="middle" x="213" y="-99.8" font-family="Times,serif" font-size="14.00">SessionModule</text>
</g>
<!-- SessionModule&#45;&gt;AppModule -->
<g id="edge9" class="edge">
<title>SessionModule&#45;&gt;AppModule</title>
<path fill="none" stroke="black" d="M213,-122.13C213,-142.57 213,-173 213,-173 213,-173 617.32,-173 617.32,-173"/>
<polygon fill="black" stroke="black" points="617.32,-176.5 627.32,-173 617.32,-169.5 617.32,-176.5"/>
</g>
<!-- AppService -->
<g id="node11" class="node">
<title>AppService</title>
<ellipse fill="#fdb462" stroke="black" cx="81" cy="-104" rx="56.74" ry="18"/>
<text text-anchor="middle" x="81" y="-99.8" font-family="Times,serif" font-size="14.00">AppService</text>
</g>
<!-- AppService&#45;&gt;AppModule -->
<g id="edge10" class="edge">
<title>AppService&#45;&gt;AppModule</title>
<path fill="none" stroke="black" d="M81,-122.01C81,-144.49 81,-180 81,-180 81,-180 617.18,-180 617.18,-180"/>
<polygon fill="black" stroke="black" points="617.18,-183.5 627.18,-180 617.18,-176.5 617.18,-183.5"/>
</g>
</g>
</svg>
